<?xml version="1.0" encoding="utf-8"?>
<!-- Generator: Adobe Illustrator 25.2.1, SVG Export Plug-In . SVG Version: 6.00 Build 0)  -->
<!DOCTYPE svg PUBLIC "-//W3C//DTD SVG 1.1//EN" "http://www.w3.org/Graphics/SVG/1.1/DTD/svg11.dtd" [
	<!ENTITY ns_extend "http://ns.adobe.com/Extensibility/1.0/">
	<!ENTITY ns_ai "http://ns.adobe.com/AdobeIllustrator/10.0/">
	<!ENTITY ns_graphs "http://ns.adobe.com/Graphs/1.0/">
	<!ENTITY ns_vars "http://ns.adobe.com/Variables/1.0/">
	<!ENTITY ns_imrep "http://ns.adobe.com/ImageReplacement/1.0/">
	<!ENTITY ns_sfw "http://ns.adobe.com/SaveForWeb/1.0/">
	<!ENTITY ns_custom "http://ns.adobe.com/GenericCustomNamespace/1.0/">
	<!ENTITY ns_adobe_xpath "http://ns.adobe.com/XPath/1.0/">
]>
<svg version="1.1" id="Capa_1" xmlns:x="&ns_extend;" xmlns:i="&ns_ai;" xmlns:graph="&ns_graphs;"
	 xmlns="http://www.w3.org/2000/svg" xmlns:xlink="http://www.w3.org/1999/xlink" x="0px" y="0px" viewBox="0 0 595.3 841.9"
	 style="enable-background:new 0 0 595.3 841.9;" xml:space="preserve">
<style type="text/css">
	.st0{fill:#EB5757;}
	.st1{fill:#E9434B;}
	.st2{fill:#D3323C;}
</style>
<metadata>
	<sfw  xmlns="&ns_sfw;">
		<slices></slices>
		<sliceSourceBounds  bottomLeftOrigin="true" height="1328" width="1578.3" x="-991.3" y="-581.3"></sliceSourceBounds>
	</sfw>
</metadata>
<path class="st0" d="M390,521.9c-114.6,73.4-249.2,34.4-315.3-55.3C6.1,373.5,15,245.6,96.1,164c80.7-81.3,207.8-91.6,300.7-25.5
	c91,64.8,133.5,201,59,317.4c1.7,1.8,3.5,3.7,5.3,5.6c37.1,37.2,74.4,74.2,111.4,111.5c21.8,22,18.4,56.2-6.9,72.9
	c-18.5,12.2-42.4,9.5-59.1-7c-32.1-31.9-64.1-64-96.1-96C403.6,536.1,397,529.1,390,521.9z M98.5,327.7
	c-0.1,89.2,73.3,162.6,162.5,162.8c89.1,0.2,162.7-73.1,163-162.3c0.3-89.4-73.4-163.3-162.9-163.2
	C171.9,165.1,98.6,238.4,98.5,327.7z"/>
<polygon class="st1" points="-710.4,888.9 -644.1,1093 -429.5,1093 -603.1,1219.1 -536.8,1423.2 -710.4,1297.1 -884,1423.2 
	-817.7,1219.1 -991.3,1093 -776.7,1093 "/>
<polygon class="st2" points="-710.4,888.9 -710.4,1180.7 -776.7,1093 "/>
<polygon class="st2" points="-429.5,1093 -710.4,1180.7 -644.1,1093 "/>
<polygon class="st2" points="-541.9,1419 -710.4,1180.7 -603.5,1217 "/>
<polygon class="st2" points="-884,1423.2 -710.4,1180.7 -710.4,1297.1 "/>
<polygon class="st2" points="-991.3,1093 -710.4,1180.7 -817.7,1219.1 "/>
</svg>
